<?xml version="1.0" encoding="utf-8"?>
<!-- Generator: Adobe Illustrator 22.1.0, SVG Export Plug-In . SVG Version: 6.00 Build 0)  -->
<svg version="1.1" id="Layer_1" xmlns="http://www.w3.org/2000/svg" xmlns:xlink="http://www.w3.org/1999/xlink" x="0px" y="0px"
	 viewBox="0 0 62.4 62.4" style="enable-background:new 0 0 62.4 62.4;" xml:space="preserve">
<style type="text/css">
	.st0{fill-rule:evenodd;clip-rule:evenodd;fill:#D32085;stroke:#D32085;stroke-miterlimit:10;}
	.st1{fill:none;stroke:#D32085;stroke-width:2;stroke-miterlimit:10;}
	.st2{fill-rule:evenodd;clip-rule:evenodd;fill:none;stroke:#D32085;stroke-width:2;stroke-miterlimit:10;}
</style>
<g>
	<circle class="st0" cx="31.7" cy="7.6" r="1.7"/>
	<circle class="st0" cx="40.1" cy="12" r="1.7"/>
	<circle class="st0" cx="51.3" cy="23.6" r="1.7"/>
	<circle class="st0" cx="51.1" cy="39.8" r="1.7"/>
	<circle class="st0" cx="39.5" cy="51" r="1.7"/>
	<circle class="st0" cx="23.3" cy="50.7" r="1.7"/>
	<circle class="st0" cx="12.1" cy="39.1" r="1.7"/>
	<circle class="st0" cx="12.3" cy="23" r="1.7"/>
	<circle class="st0" cx="23.9" cy="11.8" r="1.7"/>
	<circle class="st0" cx="55.5" cy="31.3" r="1.7"/>
	<circle class="st0" cx="31.7" cy="55.2" r="1.7"/>
	<circle class="st0" cx="7.9" cy="31.4" r="1.7"/>
	<line class="st1" x1="31.7" y1="7.6" x2="31.7" y2="18.2"/>
	<line class="st1" x1="55.5" y1="31.3" x2="44.9" y2="31.3"/>
	<line class="st1" x1="31.7" y1="55.2" x2="31.7" y2="44.5"/>
	<line class="st1" x1="7.9" y1="31.4" x2="18.5" y2="31.4"/>
	<polyline class="st2" points="40.1,11.5 40.1,16.3 36.9,20.1 	"/>
	<polyline class="st2" points="42.3,27.5 46.1,23.6 50.6,23.6 	"/>
	<polyline class="st2" points="50.9,39.8 46.1,39.8 42.3,36.6 	"/>
	<polyline class="st2" points="35.6,42.6 39.5,45.8 39.5,51 	"/>
	<polyline class="st2" points="23.3,51.3 23.3,45.8 26.5,42.6 	"/>
	<polyline class="st2" points="21,35.3 17.1,39.1 12.6,39.1 	"/>
	<polyline class="st2" points="12.3,23 17.1,23 21,26.2 	"/>
	<polyline class="st2" points="27.8,20.1 23.9,16.3 23.9,11.8 	"/>
	<path class="st2" d="M33.5,37.7l-0.3,0.1l-0.3,1.9c-0.8,0.1-1.6,0.1-2.4,0l-0.3-1.9l-0.3-0.1c-0.5-0.1-1-0.3-1.5-0.6L28.1,37
		l-1.5,1.2c-0.7-0.5-1.2-1.1-1.7-1.7l1.2-1.5l-0.2-0.3c-0.3-0.5-0.5-1-0.6-1.5l-0.1-0.3l-1.9-0.3c-0.1-0.8-0.1-1.6,0-2.4l1.9-0.3
		l0.1-0.3c0.1-0.5,0.4-1,0.6-1.5l0.2-0.3l-1.2-1.5c0.5-0.7,1.1-1.2,1.7-1.7l1.5,1.2l0.3-0.2c0.5-0.3,1-0.5,1.5-0.6l0.3-0.1l0.3-1.9
		c0.8-0.1,1.6-0.1,2.4,0l0.3,1.9l0.3,0.1c0.5,0.1,1,0.4,1.5,0.6l0.3,0.2l1.6-1.2c0.7,0.5,1.2,1.1,1.7,1.7l-1.2,1.6l0.2,0.3
		c0.3,0.5,0.5,1,0.6,1.5l0.1,0.3l1.9,0.3c0.1,0.8,0.1,1.6,0,2.4l-1.9,0.3l-0.1,0.3c-0.1,0.5-0.3,1-0.6,1.5l-0.2,0.3l1.2,1.5
		c-0.5,0.7-1.1,1.2-1.7,1.7L35.2,37l-0.3,0.2C34.5,37.4,34,37.6,33.5,37.7L33.5,37.7z"/>
	<circle class="st2" cx="31.7" cy="31.4" r="3.3"/>
	<line class="st1" x1="26.1" y1="18.4" x2="19.5" y2="25"/>
	<line class="st1" x1="37.9" y1="18.9" x2="44.4" y2="25.4"/>
	<line class="st1" x1="25.4" y1="43.7" x2="19" y2="37.3"/>
	<line class="st1" x1="37.5" y1="44.2" x2="43.9" y2="37.8"/>
</g>
</svg>
