<?xml version="1.0" encoding="utf-8"?>
<!-- Generator: Adobe Illustrator 22.1.0, SVG Export Plug-In . SVG Version: 6.00 Build 0)  -->
<svg version="1.1" id="Layer_1" xmlns="http://www.w3.org/2000/svg" xmlns:xlink="http://www.w3.org/1999/xlink" x="0px" y="0px"
	 viewBox="0 0 62.4 62.4" style="enable-background:new 0 0 62.4 62.4;" xml:space="preserve">
<style type="text/css">
	.st0{fill:#7ED321;}
</style>
<g id="ICON-exploreIdeas">
	<path class="st0" d="M38.4,18.7v6.1h1.1v-6.1c0.8-0.3,1.3-1.4,0.5-2.4c-1.6-1.2-3.3,0.6-2.1,2.1C38,18.5,38.2,18.6,38.4,18.7z"/>
	<path class="st0" d="M32.8,22.8c0.4,0.4,0.8,1.3,1,2l0.1,1.4v6h10.5l0-6l0.1-1.4c0.1-0.7,0.5-1.6,1-2c0.1-0.1,2.7-2.9,2.7-6.1
		c0-5-4-9-9-9s-9,4-9,9C30.1,19.9,32.7,22.7,32.8,22.8z M35.8,30.2v-3.1l6.5,0v3.1H35.8z M39.1,9.7c3.9,0,7,3.1,7,7
		c0,2.4-2.2,4.7-2.2,4.8c-0.7,0.7-1.3,2-1.5,3.1l0,0.6l-6.6,0l0-0.5l0-0.1c-0.2-1.1-0.8-2.4-1.5-3.1c-0.6-0.6-2.2-2.7-2.2-4.8
		C32.1,12.8,35.2,9.7,39.1,9.7z"/>
	<path class="st0" d="M55.5,32.6c-2.3-2.1-5.8-2-8,0.3l-2.8,3L43,36.9c-0.7-0.5-1.6-0.8-2.5-0.8l-6.3,0l-1.1-0.8
		c-1.1-0.8-2.3-1.2-3.6-1.2H25c-1.6,0-3.2,0.6-4.3,1.7l-3.4,3.2c-1.7-0.5-3.6-0.1-4.9,1.2l-5,4.9c-0.9,0.9-1.4,2.1-1.5,3.4
		c0,1.3,0.5,2.5,1.4,3.5l8.1,8.3h0c0.9,0.9,2.2,1.5,3.5,1.5c1.3,0,2.5-0.5,3.4-1.4l5-4.9c0.9-0.9,1.4-2.1,1.5-3.4
		c0-0.4,0-0.8-0.1-1.2c0.7-0.4,1.4-0.6,2.2-0.6h7.7c2.2,0,4.4-0.8,6.1-2.1l4.2-3.4c0.2-0.1,0.4-0.3,0.5-0.4l6.3-6.7
		c0.6-0.7,1-1.6,1-2.5C56.7,34.2,56.3,33.3,55.5,32.6z M25.9,54.2l-5,4.9c-1.1,1.1-3,1-4.1,0l-8.1-8.3c-0.5-0.5-0.8-1.3-0.8-2
		c0-0.8,0.3-1.5,0.9-2l5-4.9c0.8-0.8,2.1-1,3.1-0.6l9.7,9.9c0.1,0.4,0.2,0.7,0.2,1.1C26.8,52.9,26.5,53.6,25.9,54.2z M54.2,36.3
		l-6.1,6.5l0,0c-0.1,0.1-0.2,0.2-0.4,0.3l-4.3,3.5c-1.4,1.1-3.1,1.7-4.8,1.7h-7.7c-1.2,0-2.3,0.3-3.2,0.9l-8.7-8.9l3.1-3
		c0.8-0.8,1.8-1.2,2.9-1.2h4.6c0.9,0,1.7,0.3,2.5,0.8l1.6,1.1l6.9,0c0.6,0,1.2,0.2,1.7,0.7l0.2,0.2c0,0.1,0.1,0.4,0.1,0.9
		c0,0.2-0.1,0.3-0.1,0.4c-0.3,0.3-1,0.4-1.4,0.4l-7.4,0.1l0,2l7.3-0.1c0.2,0,1.9,0,2.8-1c0.5-0.5,0.7-1.1,0.7-1.9
		c0-0.6-0.1-1-0.2-1.4l1.6-1l3.1-3.2c1.4-1.5,3.7-1.5,5.1-0.2c0.3,0.3,0.5,0.8,0.5,1.2C54.7,35.6,54.5,36,54.2,36.3z"/>
	<circle class="st0" cx="23" cy="52.5" r="1.7"/>
	<rect x="48.7" y="24.9" transform="matrix(0.6981 -0.716 0.716 0.6981 -4.546 43.8466)" class="st0" width="2" height="4.8"/>
	<rect x="50.5" y="16" class="st0" width="4.5" height="2"/>
	<rect x="47.2" y="5.9" transform="matrix(0.7071 -0.7071 0.7071 0.7071 9.5269 36.8866)" class="st0" width="4.2" height="2"/>
	<rect x="38.1" y="0.5" class="st0" width="2" height="4.4"/>
	<rect x="27.9" y="4.7" transform="matrix(0.7071 -0.7071 0.7071 0.7071 3.4124 22.5341)" class="st0" width="2" height="5"/>
	<rect x="22" y="16.1" class="st0" width="5.4" height="2"/>
	<rect x="26.2" y="26.4" transform="matrix(0.7072 -0.7071 0.7071 0.7072 -10.9254 28.469)" class="st0" width="5.4" height="2"/>
</g>
</svg>
