<?xml version="1.0" encoding="utf-8"?>
<!-- Generator: Adobe Illustrator 22.1.0, SVG Export Plug-In . SVG Version: 6.00 Build 0)  -->
<svg version="1.1" id="Layer_1" xmlns="http://www.w3.org/2000/svg" xmlns:xlink="http://www.w3.org/1999/xlink" x="0px" y="0px"
	 viewBox="0 0 62.4 62.4" style="enable-background:new 0 0 62.4 62.4;" xml:space="preserve">
<style type="text/css">
	.st0{fill:#58A8E1;}
</style>
<g id="ICON-designProducts">
	<rect x="25.3" y="9.8" class="st0" width="6.8" height="2.1"/>
	<rect x="27.4" y="50.9" class="st0" width="2.5" height="2.1"/>
	<path class="st0" d="M42.5,34.7c1.3-0.7,6.1-3.4,6.1-7.7c0-1.9-1.6-3.5-3.5-3.5c-0.7,0-1.5,0.2-2.1,0.7c-0.3,0.2-0.7,0.2-1,0
		c-0.6-0.5-1.3-0.7-2.1-0.7c-1.9,0-3.5,1.6-3.5,3.5C36.4,31.3,41.2,34,42.5,34.7z"/>
	<path class="st0" d="M43.4,17.5V5.8H14.1v51h29.3l0-13.6l2.2-2.7l10.2,0V17.5H43.4z M29.3,17.5v23.1l10.2,0l1.8,2.3l0,2.6H16.1
		V16.2h25.1v1.2H29.3z M41.3,7.9v6.2H16.1V7.9H41.3z M16.1,54.8v-7.2h25.1l0,7.2H16.1z M53.7,38.4l-9.1,0L42.5,41l-2.1-2.6l-9.1,0
		V19.5h22.3V38.4z"/>
</g>
</svg>
